#!OML:ASF E:\Mandelcareful walks\Project 1\Capture day 1\Session 1\Subject1.ASF
:FULLY-SPECIFIED
:DEGREES
293
root -11.9514 7.26288 1.85653 196.983 80.7445 128.929
lowerback 23.8888 -2.79133 0.507402
upperback 8.04894 -3.01056 -3.90579
thorax -4.6763 -1.14031 -3.72739
lowerneck -23.1506 16.3041 8.04688
upperneck 24.3183 25.6403 -16.5954
head 15.9828 9.48771 -2.31232
rclavicle 5.96354e-014 1.09356e-013
rhumerus 1.00469 1.58347 -52.0309
rradius 74.1553
rwrist -37.4008
rhand -55.2239 -62.2261
rfingers 7.12502
rthumb -27.5943 90.223
lclavicle 5.96354e-014 1.09356e-013
lhumerus 38.7791 -5.22369 17.364
lradius 60.4275
lwrist 30.8476
lhand -54.4481 290.186
lfingers 7.12502
lthumb -26.8522 -41.7012
rfemur -23.1023 -16.5457 14.9076
rtibia 62.3526
rfoot -17.7361 -29.6011
rtoes 34.3307
lfemur -64.2826 37.3494 -16.5394
ltibia 104.945
lfoot 3.80789 21.1118
ltoes 21.695
294
root -12.0389 7.32457 1.80439 196.621 80.8925 129.13
lowerback 24.8344 -2.67748 0.195026
upperback 8.0586 -2.92809 -3.95427
thorax -5.1152 -1.09382 -3.61012
lowerneck -23.8813 15.9309 7.49542
upperneck 24.2465 25.1028 -16.2016
head 15.8506 9.23705 -2.18599
rclavicle -1.19271e-014 -4.76089e-014
rhumerus 1.71788 1.01819 -51.4387
rradius 73.1555
rwrist -37.9572
rhand -55.1774 -58.0856
rfingers 7.12502
rthumb -27.5498 -86.0896
lclavicle -1.19271e-014 -4.76089e-014
lhumerus 39.9852 -5.0153 17.392
lradius 59.6679
lwrist 30.3201
lhand -54.4799 291.635
lfingers 7.12502
lthumb -26.8826 -40.2568
rfemur -23.1601 -16.7619 14.6202
rtibia 62.9563
rfoot -18.0418 -29.8527
rtoes 34.9648
lfemur -64.2328 37.1292 -16.4395
ltibia 105.487
lfoot 4.16396 20.8528
ltoes 21.9922
295
root -12.1328 7.37988 1.74934 197.381 81.0572 130.292
lowerback 25.4759 -2.5593 0.0764253
upperback 8.0681 -2.80325 -3.9659
thorax -5.40713 -1.02998 -3.58316
lowerneck -24.4659 15.5517 6.82475
upperneck 24.0266 24.5623 -15.781
head 15.6034 9.00247 -2.04087
rclavicle -1.96797e-014 -1.5704e-014
rhumerus 2.50687 0.444399 -50.9529
rradius 72.0336
rwrist -38.2788
rhand -54.5533 -54.1339
rfingers 7.12502
rthumb -26.9528 -82.2316
lclavicle -1.96797e-014 -1.5704e-014
lhumerus 41.1888 -4.85566 17.4646
lradius 58.8664
lwrist 29.7519
lhand -54.4261 293.484
lfingers 7.12502
lthumb -26.8311 -38.3992
rfemur -23.4543 -16.8934 14.525
rtibia 63.5847
rfoot -18.5728 -29.7479
rtoes 35.4532
lfemur -64.3179 36.9042 -16.1379
ltibia 106.043
lfoot 4.1532 20.6346
ltoes 23.1668
296
root -12.2274 7.43382 1.6925 197.985 81.2333 131.152
lowerback 25.9885 -2.42377 -0.0257277
upperback 8.04303 -2.66211 -4.00442
thorax -5.67403 -0.96086 -3.60385
lowerneck -24.4631 15.0273 6.3314
upperneck 22.6674 23.756 -16.1292
head 14.8798 8.71934 -2.29995
rclavicle -7.41467e-014 -9.38761e-014
rhumerus 3.25046 -0.210296 -50.6853
rradius 70.7365
rwrist -38.4448
rhand -53.7894 -53.0957
rfingers 7.12502
rthumb -26.2217 -81.3042
lclavicle -7.41467e-014 -9.38761e-014
lhumerus 42.2775 -4.75536 17.7152
lradius 58.2674
lwrist 29.1261
lhand -54.4166 294.798
lfingers 7.12502
lthumb -26.822 -37.0846
rfemur -23.995 -17.199 14.3941
rtibia 64.2379
rfoot -18.6797 -29.6149
rtoes 35.4365
lfemur -64.7491 36.7217 -16.1443
ltibia 106.604
lfoot 4.78967 20.1215
ltoes 22.8541
297
root -12.314 7.49344 1.63699 198.027 81.4889 131.451
lowerback 26.5837 -2.27764 -0.283564
upperback 7.99923 -2.55201 -4.08847
thorax -5.99859 -0.90538 -3.57738
lowerneck -25.0013 14.6515 6.05294
upperneck 22.3308 23.2656 -16.2272
head 14.7575 8.48389 -2.3893
rclavicle -9.74045e-014 -5.19325e-014
rhumerus 3.9028 -0.84528 -50.4942
rradius 69.6418
rwrist -38.4963
rhand -53.6986 -50.6664
rfingers 7.12502
rthumb -26.1348 -78.8878
lclavicle -9.74045e-014 -5.19325e-014
lhumerus 43.2907 -4.55368 17.782
lradius 57.7306
lwrist 28.5214
lhand -54.5907 295.336
lfingers 7.12502
lthumb -26.9886 -36.5719
rfemur -24.5434 -17.4434 14.1177
rtibia 64.8979
rfoot -18.7894 -29.632
rtoes 35.794
lfemur -65.2924 36.7344 -16.4646
ltibia 107.13
lfoot 5.78271 19.5017
ltoes 19.7525
298
root -12.4002 7.55441 1.5847 197.922 81.7095 131.883
lowerback 27.5127 -2.15905 -0.608477
upperback 8.02269 -2.48546 -4.14037
thorax -6.40779 -0.863392 -3.46377
lowerneck -24.9397 14.236 6.03321
upperneck 20.9483 22.6402 -17.0856
head 14.2238 8.2499 -2.84922
rclavicle -3.18055e-014 2.56681e-014
rhumerus 4.65209 -1.57665 -50.3039
rradius 68.7042
rwrist -38.5468
rhand -53.5928 -48.4341
rfingers 7.12502
rthumb -26.0335 -76.6704
lclavicle -3.18055e-014 2.56681e-014
lhumerus 44.2631 -4.23398 17.7354
lradius 57.2298
lwrist 28.0353
lhand -54.8151 296.234
lfingers 7.12502
lthumb -27.2033 -35.7077
rfemur -24.7756 -17.6508 13.8397
rtibia 65.5629
rfoot -19.1216 -29.5847
rtoes 35.8296
lfemur -65.1176 36.5949 -16.2835
ltibia 107.584
lfoot 5.90343 18.9599
ltoes 18.8311
299
root -12.4998 7.60641 1.52872 198.629 81.8226 133.068
lowerback 28.2926 -2.04437 -0.7361
upperback 8.05521 -2.37323 -4.12614
thorax -6.73523 -0.802519 -3.40847
lowerneck -26.704 13.8527 5.0731
upperneck 22.6274 22.3031 -15.5083
head 14.8456 7.97552 -2.14012
rclavicle -3.51849e-014 -3.36195e-014
rhumerus 5.45416 -2.41723 -49.9776
rradius 67.5708
rwrist -38.67
rhand -52.9931 -47.2717
rfingers 7.12502
rthumb -25.4591 -75.5912
lclavicle -3.51849e-014 -3.36195e-014
lhumerus 45.3306 -4.03791 17.841
lradius 56.7352
lwrist 27.8468
lhand -54.9905 297.393
lfingers 7.12502
lthumb -27.3711 -34.5747
rfemur -25.12 -18.0468 13.7278
rtibia 66.2691
rfoot -19.2706 -29.5784
rtoes 35.3543
lfemur -64.9436 36.1784 -15.8713
ltibia 108.132
lfoot 5.29325 18.9314
ltoes 21.2249
300
root -12.6021 7.65368 1.47125 200.568 81.9409 135.339
lowerback 28.8597 -1.9172 -0.734912
upperback 8.06002 -2.21322 -4.04572
thorax -6.98976 -0.72512 -3.37217
lowerneck -26.965 13.3216 4.52624
upperneck 21.8406 21.5747 -15.5147
head 14.4002 7.68895 -2.2252
rclavicle -1.03368e-014 1.01132e-014
rhumerus 6.18115 -3.18861 -49.6159
rradius 66.4125
rwrist -38.6417
rhand -52.3689 -46.454
rfingers 7.12502
rthumb -24.861 -74.8575
lclavicle -1.03368e-014 1.01132e-014
lhumerus 46.3533 -3.9111 18.0449
lradius 56.137
lwrist 27.7122
lhand -55.1589 297.836
lfingers 7.12502
lthumb -27.5321 -34.1572
rfemur -25.6374 -18.3337 13.7801
rtibia 66.967
rfoot -19.5754 -29.3456
rtoes 35.0701
lfemur -65.2532 35.999 -15.6185
ltibia 108.809
lfoot 5.12392 18.941
ltoes 21.9972
301
root -12.6941 7.70295 1.41589 202.21 82.0465 137.285
lowerback 29.3568 -1.82634 -0.767121
upperback 8.12776 -2.10002 -4.00844
thorax -7.1417 -0.66615 -3.35066
lowerneck -26.664 12.6766 4.47892
upperneck 19.8271 20.5975 -16.6252
head 13.5613 7.33854 -2.85715
rclavicle -1.72943e-014 2.82274e-014
rhumerus 6.94165 -3.94372 -49.3859
rradius 65.3533
rwrist -38.4264
rhand -51.9059 -45.9077
rfingers 7.12502
rthumb -24.4173 -74.3717
lclavicle -1.72943e-014 2.82274e-014
lhumerus 47.3812 -3.54277 18.2261
lradius 55.4565
lwrist 27.1286
lhand -55.1729 298.411
lfingers 7.12502
lthumb -27.5455 -33.5842
rfemur -26.1727 -18.6359 13.8218
rtibia 67.6848
rfoot -19.4579 -29.5842
rtoes 35.1055
lfemur -65.7088 35.9663 -15.5884
ltibia 109.454
lfoot 5.71416 18.5086
ltoes 19.4558
302
root -12.7909 7.75017 1.36428 202.861 82.2604 138.298
lowerback 29.9981 -1.68996 -0.94642
upperback 8.20719 -1.97825 -4.07533
thorax -7.34529 -0.598896 -3.36624
lowerneck -27.3351 12.0906 4.0473
upperneck 19.2466 19.8526 -16.7188
head 13.3308 6.99631 -2.96986
rclavicle -3.04141e-014 -3.9906e-014
rhumerus 7.81315 -4.75429 -49.1925
rradius 64.1397
rwrist -38.253
rhand -51.3072 -45.3918
rfingers 7.12502
rthumb -23.8433 -73.932
lclavicle -3.04141e-014 -3.9906e-014
lhumerus 48.566 -3.14628 18.1274
lradius 54.8636
lwrist 27.012
lhand -55.0732 299.492
lfingers 7.12502
lthumb -27.4501 -32.4881
rfemur -26.7136 -18.9611 13.7114
rtibia 68.4883
rfoot -19.5187 -29.462
rtoes 34.7557
lfemur -65.996 35.9541 -15.6391
ltibia 110.052
lfoot 6.17345 18.14
ltoes 17.4384
303
root -12.9037 7.79138 1.31323 203.625 82.5288 139.384
lowerback 30.6206 -1.47582 -1.15751
upperback 8.28145 -1.77387 -4.14054
thorax -7.53809 -0.494091 -3.39351
lowerneck -28.591 11.4349 3.30602
upperneck 19.6161 19.1286 -16.0963
head 13.4623 6.61157 -2.75938
rclavicle -4.92986e-014 -4.65902e-014
rhumerus 8.59974 -5.58863 -48.7133
rradius 62.8738
rwrist -38.5514
rhand -50.8228 -44.8084
rfingers 7.12502
rthumb -23.3787 -73.4085
lclavicle -4.92986e-014 -4.65902e-014
lhumerus 49.8866 -2.93452 17.9212
lradius 54.2958
lwrist 27.4534
lhand -55.0333 300.69
lfingers 7.12502
lthumb -27.412 -31.284
rfemur -27.4182 -19.2483 13.5934
rtibia 69.3949
rfoot -19.603 -29.5495
rtoes 34.5896
lfemur -66.4788 35.9542 -15.7353
ltibia 110.746
lfoot 6.42875 18.137
ltoes 17.4794
304
root -13.0175 7.83229 1.26056 204.182 82.7357 140.28
lowerback 31.2255 -1.23997 -1.3753
upperback 8.36012 -1.54404 -4.17089
thorax -7.71344 -0.37776 -3.38977
lowerneck -29.6346 10.6846 2.5875
upperneck 19.9289 18.2961 -15.5636
head 13.5466 6.19205 -2.61813
rclavicle -3.97569e-016 -2.8128e-014
rhumerus 9.09616 -6.41264 -48.0653
rradius 61.8094
rwrist -38.972
rhand -50.4771 -44.1274
rfingers 7.12502
rthumb -23.0469 -72.7693
lclavicle -3.97569e-016 -2.8128e-014
lhumerus 51.2041 -2.76881 18.0805
lradius 53.6035
lwrist 26.9905
lhand -55.0572 302.05
lfingers 7.12502
lthumb -27.4348 -29.9281
rfemur -28.0278 -19.6131 13.4174
rtibia 70.3105
rfoot -20.2091 -29.0079
rtoes 34.0688
lfemur -66.9209 35.848 -15.8056
ltibia 111.375
lfoot 6.66417 18.277
ltoes 18.3045
305
root -13.1162 7.87704 1.20716 204.056 82.9594 140.595
lowerback 32.3136 -1.07017 -1.67537
upperback 7.97035 -1.45379 -4.37485
thorax -7.95855 -0.296124 -3.2456
lowerneck -30.4973 9.91303 1.7481
upperneck 20.1857 17.4569 -14.941
head 13.5607 5.78836 -2.42995
rclavicle 1.82882e-014 2.74074e-014
rhumerus 9.62468 -7.22692 -47.9815
rradius 60.7405
rwrist -38.6961
rhand -49.9603 -43.3826
rfingers 7.12502
rthumb -22.551 -72.0855
lclavicle 1.82882e-014 2.74074e-014
lhumerus 52.4566 -2.41034 17.8402
lradius 52.9127
lwrist 26.625
lhand -54.9806 303.711
lfingers 7.12502
lthumb -27.3616 -28.2554
rfemur -28.4279 -19.9186 13.1059
rtibia 71.1433
rfoot -20.2943 -29.2216
rtoes 34.0563
lfemur -66.8842 35.6638 -15.7121
ltibia 111.787
lfoot 7.30082 17.9367
ltoes 21.0556
306
root -13.2122 7.921 1.15057 203.685 83.075 140.566
lowerback 33.1163 -0.967096 -1.874
upperback 7.88135 -1.42094 -4.48461
thorax -8.36359 -0.269604 -3.26958
lowerneck -31.4096 9.1155 0.8823
upperneck 20.4812 16.5947 -14.2418
head 13.5997 5.37925 -2.21164
rclavicle 5.1684e-014 5.18828e-014
rhumerus 10.2196 -8.04213 -47.9837
rradius 59.5153
rwrist -38.2718
rhand -49.4756 -42.4264
rfingers 7.12502
rthumb -22.0857 -71.1851
lclavicle 5.1684e-014 5.18828e-014
lhumerus 53.6423 -2.16691 17.5824
lradius 52.3902
lwrist 26.7441
lhand -54.7877 304.945
lfingers 7.12502
lthumb -27.1771 -26.992
rfemur -28.8592 -20.1574 12.7649
rtibia 71.8982
rfoot -20.4303 -29.2028
rtoes 34.3406
lfemur -67.1833 35.3128 -15.8099
ltibia 112.229
lfoot 8.33778 17.9038
ltoes 20.1459
